<svg width="405" height="398" viewBox="0 0 405 398" fill="none" xmlns="http://www.w3.org/2000/svg">
<path d="M189.825 7.55683C183.648 8.29769 173.856 10.2239 167.981 11.8539L157.434 14.6691L167.981 13.6319C185.456 11.8539 214.081 12.7429 227.64 15.41C275.699 24.7449 319.087 50.9715 347.259 87.5701C357.655 101.054 358.258 101.35 351.93 89.6446C321.347 33.6353 254.004 -0.444501 189.825 7.55683Z" fill="black" fill-opacity="0.858824"/>
<path d="M175.513 18.6698C154.27 21.485 146.587 23.115 134.083 26.9674C80.6005 43.7109 38.2664 82.384 15.6682 134.986C8.58737 151.433 9.18999 152.766 17.0241 137.653C26.3647 119.279 39.0197 102.832 56.345 86.2366C95.8166 48.6006 143.423 29.6345 198.865 29.6345C240.445 29.6345 277.507 40.3029 309.596 61.6398C322.553 70.2339 319.841 66.5295 305.679 56.1575C273.289 32.598 237.282 20.0033 198.111 18.6698C188.168 18.3734 178.074 18.2253 175.513 18.6698ZM213.177 23.5595C217.395 24.3003 211.67 24.893 193.591 25.4857C167.529 26.5229 153.366 28.7455 132.576 35.4132C121.88 38.9694 85.4214 56.1575 84.6682 58.0837C84.3669 58.6764 83.4629 59.2691 82.7096 59.2691C77.286 59.2691 94.6114 48.008 113.745 39.1176C127.604 32.598 144.027 27.5601 161.201 24.3003C172.199 22.3741 203.987 21.7814 213.177 23.5595Z" fill="black" fill-opacity="0.858824"/>
<path d="M20.9513 119.613C29.3726 107.772 37.1663 96.193 45.6241 85.1449C61.2493 64.7343 81.9079 50.5614 104.391 39.63C126.105 29.0727 148.615 20.3193 173.445 20.519C186.886 20.6271 200.705 17.4457 213.696 19.7036C232.376 22.9504 251.006 28.3894 268.623 35.5497C283.549 41.6162 297.073 51.3401 311.059 59.7223C313.642 61.2703 315.467 64.1384 317.392 67.4085C264.028 34.4497 207.08 24.4603 146.841 40.1206C86.4402 55.8229 42.0548 93.3103 11.7244 148.702C7.90159 143.817 11.1819 133.627 20.9513 119.613Z" fill="black" fill-opacity="0.858824"/>
<path d="M84.6681 89.4963C78.6419 99.7202 73.8209 108.314 73.8209 108.759C73.8209 109.203 111.334 109.648 157.134 109.648H240.596L247.075 113.055C255.511 117.353 259.126 124.021 259.126 135.281C259.126 146.691 256.414 152.47 246.019 163.138C235.624 173.954 218.901 185.067 197.659 195.44C189.072 199.737 182.292 203.737 182.594 204.331C182.896 205.071 189.072 218.406 196.455 233.964L209.862 262.266H239.24C261.989 262.266 268.317 261.821 267.714 260.488C267.262 259.451 261.086 246.411 254.004 231.446C246.923 216.628 241.048 204.034 241.048 203.737C241.048 203.293 241.952 202.997 243.157 202.997C246.471 202.997 277.055 187.587 285.492 181.66C298.599 172.473 311.706 158.545 316.827 148.321C321.045 139.875 321.649 137.208 321.649 126.688C321.649 116.908 320.895 113.352 317.581 106.388C312.458 95.4233 302.967 86.6811 290.011 80.4578C271.029 71.5674 265.002 71.1229 175.664 71.1229H95.5153L84.6681 89.4963Z" fill="black" fill-opacity="0.858824"/>
<path d="M147.039 139.579C137.247 155.137 58.9061 290.863 57.5502 294.716C53.0305 307.607 57.0982 318.572 68.6987 324.498L75.9301 328.202L183.95 328.647L291.819 329.091L304.022 308.643L316.074 288.196L214.382 287.751C129.262 287.456 112.841 287.159 113.443 285.381C114.197 283.603 190.88 152.173 197.659 141.06L200.672 136.319H174.91C149.902 136.319 149.148 136.467 147.039 139.579Z" fill="black" fill-opacity="0.858824"/>
<path d="M378.747 151.581C401.947 224.63 373.775 310.126 311.254 356.8C299.351 365.542 299.201 366.58 310.65 359.763C353.889 333.981 380.856 296.938 390.95 249.671C396.223 225.223 393.662 189.957 385.074 164.768C381.76 155.285 376.337 143.876 378.747 151.581Z" fill="black" fill-opacity="0.858824"/>
<path d="M376.035 221.518C372.569 242.855 359.462 273.082 343.945 296.197C333.4 311.755 307.938 337.093 291.969 347.91C267.563 364.357 236.98 376.507 208.054 381.397C190.428 384.361 158.64 384.361 142.369 381.544C135.891 380.36 130.166 379.619 129.864 379.915C129.112 380.804 152.614 386.583 164.214 388.361C178.676 390.584 217.245 389.25 230.502 385.99C288.203 372.21 333.852 336.945 359.312 286.27C369.707 265.674 379.349 230.113 377.843 218.111C377.391 215.147 376.939 216.036 376.035 221.518Z" fill="black" fill-opacity="0.858824"/>
</svg>
